<?xml version="1.0" encoding="UTF-8"?>
<svg width="52px" height="32px" viewBox="0 0 52 32" version="1.1" xmlns="http://www.w3.org/2000/svg" xmlns:xlink="http://www.w3.org/1999/xlink">
    <title>Group</title>
    <g id="Page-1" stroke="none" stroke-width="1" fill="none" fill-rule="evenodd">
        <g id="Home" transform="translate(-27.000000, -834.000000)" fill="#FFFFFF" fill-rule="nonzero">
            <g id="footer-copy-3" transform="translate(0.000000, 617.000000)">
                <g id="Group" transform="translate(27.000000, 217.000000)">
                    <path d="M2.27850548,0.203312281 C1.0690533,0.203312281 1.13043478e-06,1.21249123 1.13043478e-06,2.44892632 L1.13043478e-06,29.3963228 C1.13043478e-06,30.6327579 1.06899678,31.6419368 2.27850548,31.6419368 L49.7214945,31.6419368 C50.9308902,31.6419368 52.0000011,30.6327579 52.0000011,29.3963228 L52.0000011,2.44892632 C52.0000011,1.21249123 50.9308902,0.203312281 49.7214945,0.203312281 L2.27850548,0.203312281 Z M3.76220113,3.57173333 L48.2377989,3.57173333 L26.0000011,20.0102737 L3.76220113,3.57173333 Z M3.39130548,7.48404211 L24.9932359,23.4488702 C25.591782,23.8874697 26.4082202,23.8874697 27.0067663,23.4488702 L48.6086945,7.48404211 L48.6086945,28.2735158 L3.39130548,28.2735158 L3.39130548,7.48404211 Z" id="Shape"></path>
                </g>
            </g>
        </g>
    </g>
</svg>