<?xml version="1.0" encoding="UTF-8"?>
<svg width="33px" height="33px" viewBox="0 0 33 33" version="1.1" xmlns="http://www.w3.org/2000/svg" xmlns:xlink="http://www.w3.org/1999/xlink">
    <title>noun_instagram_3350460 copy 7</title>
    <g id="Page-1" stroke="none" stroke-width="1" fill="none" fill-rule="evenodd">
        <g id="Home" transform="translate(-289.000000, -833.000000)" fill="#FFFFFF" fill-rule="nonzero">
            <g id="footer-copy-3" transform="translate(0.000000, 617.000000)">
                <g id="noun_instagram_3350460-copy-7" transform="translate(289.000000, 216.000000)">
                    <path d="M27.5,0 L5.5,0 C2.46243388,0 0,2.46243388 0,5.5 L0,27.5 C0,30.5375661 2.46243388,33 5.5,33 L27.5,33 C30.5375661,33 33,30.5375661 33,27.5 L33,5.5 C33,2.46243388 30.5375661,0 27.5,0 Z M30.25,27.5 C30.25,29.0187831 29.0187831,30.25 27.5,30.25 L5.5,30.25 C3.98121694,30.25 2.75,29.0187831 2.75,27.5 L2.75,5.5 C2.75,3.98121694 3.98121694,2.75 5.5,2.75 L27.5,2.75 C29.0187831,2.75 30.25,3.98121694 30.25,5.5 L30.25,27.5 Z" id="Shape"></path>
                    <path d="M16.5,8 C11.8055796,8 8,11.8055796 8,16.5 C8,21.1944204 11.8055796,25 16.5,25 C21.1944204,25 25,21.1944204 25,16.5 C25,14.2456598 24.1044669,12.0836516 22.5104076,10.4895924 C20.9163484,8.89553314 18.7543402,8 16.5,8 Z M16.5,22.1666667 C13.3703864,22.1666667 10.8333333,19.6296136 10.8333333,16.5 C10.8333333,13.3703864 13.3703864,10.8333333 16.5,10.8333333 C19.6296136,10.8333333 22.1666667,13.3703864 22.1666667,16.5 C22.1666667,18.0028934 21.5696446,19.4442323 20.5069384,20.5069384 C19.4442323,21.5696446 18.0028934,22.1666667 16.5,22.1666667 Z" id="Shape"></path>
                    <circle id="Oval" cx="26" cy="7" r="2"></circle>
                </g>
            </g>
        </g>
    </g>
</svg>