<?xml version="1.0" encoding="UTF-8"?>
<svg width="32px" height="33px" viewBox="0 0 32 33" version="1.1" xmlns="http://www.w3.org/2000/svg" xmlns:xlink="http://www.w3.org/1999/xlink">
    <title>noun_linkedin_2045581 copy 7</title>
    <g id="Page-1" stroke="none" stroke-width="1" fill="none" fill-rule="evenodd">
        <g id="Home" transform="translate(-352.000000, -833.000000)" fill="#FFFFFF" fill-rule="nonzero">
            <g id="footer-copy-3" transform="translate(0.000000, 617.000000)">
                <g id="Group" transform="translate(352.000000, 216.000000)">
                    <path d="M4.72727273,0.134291461 C2.12939345,0.134291461 0,2.30555427 0,4.95451618 C0,7.60347809 2.12939345,9.7747409 4.72727273,9.7747409 C7.325152,9.7747409 9.45454545,7.60347809 9.45454545,4.95451618 C9.45454545,2.30555427 7.325152,0.134291461 4.72727273,0.134291461 Z M4.72727273,2.35901056 C6.14600982,2.35901056 7.27272727,3.50788146 7.27272727,4.95451618 C7.27272727,6.4011509 6.14600982,7.5500218 4.72727273,7.5500218 C3.30853564,7.5500218 2.18181818,6.4011509 2.18181818,4.95451618 C2.18181818,3.50788146 3.30853564,2.35901056 4.72727273,2.35901056 Z M23.6363636,9.7747409 C21.5730473,9.7747409 20.0828895,10.5653987 18.9090909,11.5359769 C18.863868,10.9851297 18.3602931,10.5144426 17.8181818,10.5163139 L12,10.5163139 C11.4288171,10.5163721 10.9090909,11.0462594 10.9090909,11.6286735 L10.9090909,31.6511454 C10.9090909,32.2335594 11.4288171,32.7635049 12,32.7635049 L18.1818182,32.7635049 C18.7530011,32.7635049 19.2726702,32.2335594 19.2727273,31.6511454 L19.2727273,20.5275499 C19.2727273,19.6641364 19.5446527,18.8486471 19.9204545,18.3144179 C20.2962564,17.7802257 20.7058,17.5612578 21.0909091,17.5612578 L21.8181818,17.5612578 C22.2032909,17.5612578 22.6128345,17.7802257 22.9886364,18.3144179 C23.3644382,18.8486471 23.6363636,19.6641364 23.6363636,20.5275499 L23.6363636,31.6511454 C23.6364207,32.2335594 24.1560898,32.7635049 24.7272727,32.7635049 L30.9090909,32.7635049 C31.4802738,32.7635049 32,32.2335594 32,31.6511454 L32,18.6736173 C32,16.1540858 31.5357811,13.9090476 30.1590909,12.2659628 C28.7824007,10.622878 26.573952,9.7747409 23.6363636,9.7747409 Z M1.70454545,10.5163124 C1.17223956,10.5732037 0.724410327,11.0829354 0.727259081,11.6286735 L0.727259081,31.6511454 C0.727259081,32.2335594 1.24699876,32.7635049 1.81818182,32.7635049 L8,32.7635049 C8.57118291,32.7635049 9.09090909,32.2335594 9.09090909,31.6511454 L9.09090909,11.6286735 C9.09090909,11.0462594 8.57118291,10.5163124 8,10.5163124 C5.90591236,10.5163124 3.78980145,10.5163124 1.70454545,10.5163124 Z M23.6363636,11.99946 C26.1792949,11.99946 27.6104564,12.6526746 28.5,13.7143476 C29.3895436,14.7760207 29.8181818,16.4391465 29.8181818,18.6736173 L29.8181818,30.5387858 L25.8181818,30.5387858 L25.8181818,20.5275499 C25.8181818,19.2135566 25.4371982,17.9774471 24.7613636,17.0166651 C24.0855291,16.0559201 23.0447087,15.3365387 21.8181818,15.3365387 L21.0909091,15.3365387 C19.8643822,15.3365387 18.8235618,16.0559201 18.1477273,17.0166651 C17.4718927,17.9774471 17.0909091,19.2135566 17.0909091,20.5275499 L17.0909091,24.6062016 C17.0530647,24.6041993 17.0151171,24.6041993 16.9772727,24.6062016 C16.4060058,24.6364392 15.9132396,25.194012 15.9429927,25.7765065 C15.9727458,26.359001 16.5196524,26.86136 17.0909091,26.8309207 L17.0909091,27.5724937 C17.0530647,27.5704915 17.0151171,27.5704915 16.9772727,27.5724937 C16.4060058,27.6027313 15.9132396,28.1603042 15.9429927,28.7427987 C15.9727458,29.3252932 16.5196524,29.8276522 17.0909091,29.7972128 L17.0909091,30.5387858 L13.0909091,30.5387858 L13.0909091,12.741033 L16.7272727,12.741033 L16.7272727,14.2241791 C16.7270498,14.6817148 17.0336625,15.1229745 17.457068,15.274459 C17.8804735,15.4259434 18.39026,15.2767579 18.6704545,14.9194038 C19.8802578,13.3813999 21.0473655,11.99946 23.6363636,11.99946 Z M2.90909091,12.741033 L6.90909091,12.741033 L6.90909091,24.6062016 C6.87124655,24.6041993 6.83329891,24.6041993 6.79545455,24.6062016 C6.22418764,24.6364392 5.73142145,25.194012 5.76117455,25.7765065 C5.79092764,26.359001 6.33783418,26.86136 6.90909091,26.8309207 L6.90909091,27.5724937 C6.87124655,27.5704915 6.83329891,27.5704915 6.79545455,27.5724937 C6.22418764,27.6027313 5.73142145,28.1603042 5.76117455,28.7427987 C5.79092764,29.3252932 6.33783418,29.8276522 6.90909091,29.7972128 L6.90909091,30.5387858 L2.90909091,30.5387858 L2.90909091,12.741033 Z" id="Shape"></path>
                </g>
            </g>
        </g>
    </g>
</svg>