<?xml version="1.0" encoding="UTF-8"?>
<svg width="32px" height="32px" viewBox="0 0 32 32" version="1.1" xmlns="http://www.w3.org/2000/svg" xmlns:xlink="http://www.w3.org/1999/xlink">
    <title>linkedinLogo</title>
    <g id="Page-1" stroke="none" stroke-width="1" fill="none" fill-rule="evenodd">
        <g id="linkedinLogo" fill="#FFFFFF" fill-rule="nonzero">
            <path d="M23.7800594,11.1266715 C22.4420673,11.1261035 21.1247791,11.4562612 19.9459357,12.0876355 C19.725697,11.5089335 19.1696821,11.1263948 18.5491885,11.1266715 L12.5710503,11.1266715 C12.1746058,11.1264466 11.7943336,11.2834562 11.514005,11.5631128 C11.2336764,11.8427695 11.0762895,12.22213 11.0765155,12.6176242 L11.0765155,30.5090476 C11.0762856,30.9045429 11.2336711,31.2839058 11.5140006,31.5635633 C11.7943301,31.8432208 12.1746045,32.0002291 12.5710503,31.9999997 L18.5491885,31.9999997 C18.9456342,32.0002291 19.3259086,31.8432208 19.6062381,31.5635633 C19.8865677,31.2839058 20.0439532,30.9045429 20.043723,30.5090476 L20.043723,22.3088118 C20.043723,21.776146 20.3285797,21.2839425 20.7909903,21.0176095 C21.2534009,20.7512766 21.8231143,20.7512766 22.2855249,21.0176095 C22.7479355,21.2839425 23.0327922,21.776146 23.0327922,22.3088118 L23.0327922,30.5090476 C23.032562,30.9045429 23.1899476,31.2839058 23.4702771,31.5635633 C23.7506066,31.8432208 24.130881,32.0002291 24.5273267,31.9999997 L30.5054649,31.9999997 C30.9019107,32.0002291 31.2821851,31.8432208 31.5625146,31.5635633 C31.8428441,31.2839058 32.0002296,30.9045429 31.9999997,30.5090476 L31.9999997,19.326908 C31.9943589,14.8003757 28.3174685,11.1322993 23.7800594,11.1266715 Z M29.0109963,29.0180956 L26.0218613,29.0180956 L26.0218613,22.3088118 C26.0218613,19.8385218 24.0144835,17.835956 21.5382576,17.835956 C19.0620317,17.835956 17.0546539,19.8385218 17.0546539,22.3088118 L17.0546539,29.0180956 L14.0655848,29.0180956 L14.0655848,14.1085761 L17.0546539,14.1085761 L17.0546539,15.1569092 C17.0550258,15.7900352 17.4559928,16.3539523 18.0548461,16.5635726 C18.6536994,16.7731929 19.3199574,16.582843 19.7167936,16.0887541 C21.0917713,14.3466493 23.4239323,13.667797 25.5222759,14.3988772 C27.6206195,15.1299573 29.0220713,17.1096312 29.0109963,19.326908 L29.0109963,29.0180956 Z M8.0874466,11.126672 L2.10930837,11.126672 C1.71286387,11.1264466 1.33259174,11.2834562 1.0522631,11.5631128 C0.771934457,11.8427695 0.614547648,12.22213 0.614773563,12.6176242 L0.614773563,30.5090476 C0.614543676,30.9045429 0.77192921,31.2839058 1.05225871,31.5635633 C1.33258821,31.8432208 1.71286265,32.0002291 2.10930837,31.9999997 L8.0874466,31.9999997 C8.48389231,32.0002291 8.86416675,31.8432208 9.14449626,31.5635633 C9.42482576,31.2839058 9.58221129,30.9045429 9.5819814,30.5090476 L9.5819814,12.6176242 C9.58220732,12.22213 9.42482051,11.8427695 9.14449187,11.5631128 C8.86416323,11.2834562 8.4838911,11.1264466 8.0874466,11.126672 Z M6.59291204,29.0180956 L3.60384293,29.0180956 L3.60384293,14.1085761 L6.59291204,14.1085761 L6.59291204,29.0180956 Z M5.12027241,0.0086435803 C3.33846456,-0.0977577786 1.64301274,0.78455196 0.710966115,2.30323777 C-0.221080512,3.82192357 -0.237857014,5.72953526 0.667336013,7.26430131 C1.57252904,8.79906736 3.25220211,9.71091751 5.03560703,9.6357203 L5.07793225,9.6357203 C6.8646428,9.74159176 8.56367626,8.85360024 9.49355864,7.32791479 C10.423441,5.80222935 10.4318535,3.88876389 9.51542194,2.35500003 C8.59899037,0.821236176 6.90783019,-0.0815888747 5.12025747,0.0086435803 L5.12027241,0.0086435803 Z M5.0779472,6.65381641 L5.03560703,6.65381641 C4.51271954,6.71715885 3.98788073,6.55218827 3.59583632,6.20125875 C3.2037919,5.85032924 2.98272617,5.34762058 2.98939494,4.82219685 C2.98939494,3.7097976 3.82569164,2.99053256 5.12027241,2.99053256 C5.64852403,2.92028108 6.18140358,3.08151906 6.58153173,3.43267846 C6.98165988,3.78383787 7.20988159,4.29055554 7.20738071,4.82219685 C7.20738071,5.93458119 6.37106333,6.65381641 5.0779472,6.65381641 Z" id="Shape"></path>
        </g>
    </g>
</svg>